{
  "accessors": [
    {
      "bufferView": 0,
      "componentType": 5126,
      "count": 770,
      "max": [
        0.5649636387825012,
        1.0000008344650269,
        0.07250027358531952
      ],
      "min": [
        -0.5649639964103699,
        -1.0,
        -0.07250019907951355
      ],
      "type": "VEC3"
    },
    {
      "bufferView": 1,
      "componentType": 5125,
      "count": 1682,
      "type": "SCALAR"
    },
    {
      "bufferView": 2,
      "componentType": 5126,
      "count": 770,
      "type": "VEC3"
    },
    {
      "bufferView": 3,
      "componentType": 5126,
      "count": 770,
      "type": "VEC4"
    },
    {
      "bufferView": 4,
      "componentType": 5126,
      "count": 770,
      "type": "VEC2"
    },
    {
      "bufferView": 5,
      "componentType": 5126,
      "count": 770,
      "max": [
        0.5649636387825012,
        1.0000008344650269,
        0.07250027358531952
      ],
      "min": [
        -0.5649639964103699,
        -1.0,
        -0.07250019907951355
      ],
      "type": "VEC3"
    },
    {
      "bufferView": 6,
      "componentType": 5123,
      "count": 57,
      "type": "SCALAR"
    },
    {
      "bufferView": 7,
      "componentType": 5126,
      "count": 770,
      "type": "VEC3"
    },
    {
      "bufferView": 8,
      "componentType": 5126,
      "count": 770,
      "type": "VEC4"
    },
    {
      "bufferView": 9,
      "componentType": 5126,
      "count": 770,
      "type": "VEC2"
    }
  ],
  "asset": {
    "version": "2.0"
  },
  "bufferViews": [
    {
      "buffer": 0,
      "byteLength": 9240,
      "target": 34962
    },
    {
      "buffer": 1,
      "byteLength": 6728,
      "target": 34963
    },
    {
      "buffer": 2,
      "byteLength": 9240,
      "target": 34962
    },
    {
      "buffer": 3,
      "byteLength": 12320,
      "target": 34962
    },
    {
      "buffer": 4,
      "byteLength": 6160,
      "target": 34962
    },
    {
      "buffer": 0,
      "byteLength": 9240,
      "target": 34962
    },
    {
      "buffer": 5,
      "byteLength": 114,
      "target": 34963
    },
    {
      "buffer": 2,
      "byteLength": 9240,
      "target": 34962
    },
    {
      "buffer": 3,
      "byteLength": 12320,
      "target": 34962
    },
    {
      "buffer": 4,
      "byteLength": 6160,
      "target": 34962
    }
  ],
  "buffers": [
    {
      "byteLength": 9240,
      "uri": "data:application/octet-stream;base64,"
    },
    {
      "byteLength": 6728,
      "uri": "data:application/octet-stream;base64,"
    },
    {
      "byteLength": 9240,
      "uri": "data:application/octet-stream;base64,"
    },
    {
      "byteLength": 12320,
      "uri": "data:application/octet-stream;base64,"
    },
    {
      "byteLength": 6160,
      "uri": "data:application/octet-stream;base64,"
    },
    {
      "byteLength": 114,
      "uri": "data:application/octet-stream;base64,"
    }
  ],
  "materials": [
    {
      "doubleSided": true,
      "pbrMetallicRoughness": {
        "baseColorFactor": [
          0.5,
          0.5,
          0.5,
          1.0
        ]
      }
    }
  ],
  "meshes": [
    {
      "name": "defaultMaterial",
      "primitives": [
        {
          "attributes": {
            "NORMAL": 2,
            "POSITION": 0,
            "TANGENT": 3,
            "TEXCOORD_0": 4
          },
          "indices": 1,
          "material": 0,
          "mode": 5
        },
        {
          "attributes": {
            "NORMAL": 7,
            "POSITION": 5,
            "TANGENT": 8,
            "TEXCOORD_0": 9
          },
          "indices": 6,
          "material": 0,
          "mode": 4
        }
      ]
    }
  ],
  "nodes": [
    {
      "mesh": 0,
      "name": "defaultMaterial"
    },
    {
      "children": [
        0
      ],
      "name": "paddle"
    },
    {
      "children": [
        1
      ],
      "name": "Collada visual scene group",
      "rotation": [
        2.1855700111022284e-08,
        0.0,
        0.0,
        0.9999999999999998
      ],
      "scale": [
        1.0,
        1.0,
        1.0
      ],
      "translation": [
        0.0,
        0.0,
        0.0
      ]
    }
  ],
  "scene": 0,
  "scenes": [
    {
      "nodes": [
        2
      ]
    }
  ]
}
